Coordinates
version=1
nRows=5
nColumns=40
inDegrees=yes

Units are S.I. units (second, meters, Newtons, ...)
If the header above contains a line with 'inDegrees', this indicates whether rotational values are in degrees (yes) or radians (no).

endheader
time	pelvis_tilt	pelvis_list	pelvis_rotation	pelvis_tx	pelvis_ty	pelvis_tz	hip_flexion_r	hip_adduction_r	hip_rotation_r	knee_angle_r	knee_angle_r_beta	ankle_angle_r	subtalar_angle_r	mtp_angle_r	hip_flexion_l	hip_adduction_l	hip_rotation_l	knee_angle_l	knee_angle_l_beta	ankle_angle_l	subtalar_angle_l	mtp_angle_l	lumbar_extension	lumbar_bending	lumbar_rotation	arm_flex_r	arm_add_r	arm_rot_r	elbow_flex_r	pro_sup_r	wrist_flex_r	wrist_dev_r	arm_flex_l	arm_add_l	arm_rot_l	elbow_flex_l	pro_sup_l	wrist_flex_l	wrist_dev_l
      2.07000000	     -2.66784582	     -8.78562044	     89.62440090	      0.20376988	      0.99737226	     -1.26160845	     29.75945347	     -3.85891599	     -2.63649692	     59.62094399	      1.04058178	     -1.54419714	      0.00000000	     -0.00000000	     11.80242378	      5.97251597	      1.22503019	      6.01722479	      0.10502038	      1.15945911	     -0.00000000	     -0.00000000	      0.28145305	     -4.34489147	     -2.45037739	     -0.00000000	      0.00000000	     -0.00000000	      0.00000000	      0.00000000	      0.00000000	     -0.00000000	     -0.00000000	     -0.00000000	     -0.00000000	      0.00000000	      0.00000000	      0.00000000	      0.00000000
      2.08000000	     -2.40808142	     -8.71496892	     89.68722597	      0.20336617	      0.99801494	     -1.27496184	     30.75665930	     -3.57733615	     -2.79115777	     57.84125298	      1.00952031	     -0.86851919	      0.00000000	      0.00000000	     10.53162096	      5.76304149	      1.45478751	      5.41176100	      0.09445305	      1.65459186	      0.00000000	      0.00000000	      0.24047496	     -3.98355736	     -2.52010017	      0.00000000	      0.00000000	      0.00000000	      0.00000000	      0.00000000	      0.00000000	      0.00000000	      0.00000000	      0.00000000	      0.00000000	      0.00000000	      0.00000000	      0.00000000	      0.00000000
      2.09000000	     -2.19993870	     -8.61129407	     89.73925921	      0.20305108	      0.99839827	     -1.28841673	     31.59043766	     -3.32880793	     -2.91362059	     55.77889348	      0.97352534	     -0.21184698	      0.00000000	     -0.00000000	      9.22768440	      5.60124371	      1.71866929	      4.82559615	      0.08422254	      2.17251617	      0.00000000	     -0.00000000	      0.17041280	     -3.70114342	     -2.57754239	     -0.00000000	     -0.00000000	     -0.00000000	      0.00000000	      0.00000000	     -0.00000000	     -0.00000000	      0.00000000	      0.00000000	      0.00000000	      0.00000000	      0.00000000	      0.00000000	      0.00000000
      2.10000000	     -2.07085451	     -8.53638134	     89.78000496	      0.20270794	      0.99836633	     -1.30191216	     32.35557090	     -3.18303876	     -3.04834294	     53.48184296	      0.93343425	      0.36514194	      0.00000000	      0.00000000	      7.96746460	      5.52000180	      1.90558246	      4.26921640	      0.07451188	      2.71655543	      0.00000000	      0.00000000	      0.12912765	     -3.49658010	     -2.62065037	      0.00000000	      0.00000000	      0.00000000	      0.00000000	      0.00000000	      0.00000000	      0.00000000	      0.00000000	      0.00000000	      0.00000000	      0.00000000	      0.00000000	      0.00000000	      0.00000000
      2.11000000	     -1.99466212	     -8.21532567	     89.81232402	      0.20242339	      0.99836687	     -1.31563198	     32.69862786	     -3.08679020	     -3.19381604	     50.88137364	      0.88804750	      0.80671153	     -0.00000000	      0.00000000	      6.39160901	      5.49257594	      2.09651686	      3.64368568	      0.06359431	      3.21429468	     -0.00000000	      0.00000000	     -0.19709294	     -3.36090207	     -2.60555336	      0.00000000	      0.00000000	     -0.00000000	      0.00000000	      0.00000000	      0.00000000	      0.00000000	      0.00000000	      0.00000000	      0.00000000	      0.00000000	      0.00000000	     -0.00000000	      0.00000000
